<svg xmlns="http://www.w3.org/2000/svg" viewBox="0 0 1440 320">
  <path fill="#0099ff" fill-opacity="0.7" d="M0,160L48,181.3C96,203,192,245,288,229.3C384,213,480,139,576,138.7C672,139,768,213,864,229.3C960,245,1056,203,1152,192C1248,181,1344,203,1392,213.3L1440,224L1440,320L1392,320C1344,320,1248,320,1152,320C1056,320,960,320,864,320C768,320,672,320,576,320C480,320,384,320,288,320C192,320,96,320,48,320L0,320Z"></path>
  <path fill="#0099ff" fill-opacity="0.7" d="M0,96L34.3,133.3C68.6,171,137,245,206,272C274.3,299,343,277,411,277.3C480,277,549,299,617,282.7C685.7,267,754,213,823,186.7C891.4,160,960,160,1029,165.3C1097.1,171,1166,181,1234,165.3C1302.9,149,1371,107,1406,85.3L1440,64L1440,320L1405.7,320C1371.4,320,1303,320,1234,320C1165.7,320,1097,320,1029,320C960,320,891,320,823,320C754.3,320,686,320,617,320C548.6,320,480,320,411,320C342.9,320,274,320,206,320C137.1,320,69,320,34,320L0,320Z"></path>
</svg>