<svg xmlns="http://www.w3.org/2000/svg" viewBox="0 0 1440 320">
    <path fill="#ee4540" fill-opacity="0.7" d="M0,32L60,64C120,96,240,160,360,181.3C480,203,600,181,720,192C840,203,960,245,1080,224C1200,203,1320,117,1380,74.7L1440,32L1440,320L1380,320C1320,320,1200,320,1080,320C960,320,840,320,720,320C600,320,480,320,360,320C240,320,120,320,60,320L0,320Z"></path>
    <path fill="#ff5500" fill-opacity="0.7" d="M0,192L34.3,192C68.6,192,137,192,206,202.7C274.3,213,343,235,411,256C480,277,549,299,617,277.3C685.7,256,754,192,823,186.7C891.4,181,960,235,1029,218.7C1097.1,203,1166,117,1234,90.7C1302.9,64,1371,96,1406,112L1440,128L1440,320L1405.7,320C1371.4,320,1303,320,1234,320C1165.7,320,1097,320,1029,320C960,320,891,320,823,320C754.3,320,686,320,617,320C548.6,320,480,320,411,320C342.9,320,274,320,206,320C137.1,320,69,320,34,320L0,320Z"></path>


</svg>
